P2
# THIS COMMENT LINE IS TOO MANY CHARACTERS AND SHOULD RETURN AN ERROR WHEN IT IS RUN. IF THIS COMMENT LINE PASSES THE TEST THEN SOMETHING IS BADLY WRONG AND I NEED TO SOLVE THIS ISSUE.
2 2
255
96 23
50 60