P2
2 2
255
20 10
10 20
