P2
2 2
255
96 23
30 85